<svg width="46" height="45" viewBox="0 0 46 45" fill="none" xmlns="http://www.w3.org/2000/svg">
<rect x="7.05908" y="28.2032" width="8.62368" height="15.2967" stroke="black" stroke-width="3"/>
<rect x="17.1667" y="21.7748" width="11.6559" height="21.7253" stroke="black" stroke-width="3"/>
<rect x="30.3066" y="32.6538" width="8.62368" height="10.8461" stroke="black" stroke-width="3"/>
<line y1="43.5" x2="45.9893" y2="43.5" stroke="black" stroke-width="3"/>
<path d="M25.1941 6.49121C25.5614 7.19521 26.2415 7.68258 27.0261 7.80469L30.6472 8.36816L28.0906 10.874C27.5109 11.4421 27.2427 12.2563 27.3718 13.0576L27.9412 16.5889L24.614 14.9326C23.9563 14.6054 23.1905 14.5857 22.5193 14.8721L22.3865 14.9326L19.0583 16.5879L19.6287 13.0576C19.7578 12.2564 19.4896 11.4421 18.9099 10.874L16.3513 8.36816L19.9744 7.80469C20.759 7.68256 21.4391 7.19524 21.8064 6.49121L23.4998 3.24316L25.1941 6.49121Z" stroke="black" stroke-width="3"/>
</svg>
